<svg id="Layer_1" data-name="Layer 1" xmlns="http://www.w3.org/2000/svg" width="180" height="200" viewBox="0 0 180 200"><defs><style>.cls-1{fill:#2dc300;}.cls-2{fill:#fff;}.cls-3{fill:#27af2c;}</style></defs><ellipse class="cls-1" cx="90" cy="68.89" rx="83.06" ry="62.88"/><ellipse class="cls-2" cx="76.54" cy="103.65" rx="6.62" ry="3.32"/><ellipse cx="116.06" cy="104.76" rx="2.01" ry="2.21"/><polygon class="cls-3" points="84.05 116.48 64.84 122.43 42.4 64.7 61.61 58.75 84.05 116.48"/><rect class="cls-3" x="79.34" y="57.82" width="20.33" height="61.11"/><polygon class="cls-3" points="116.15 120.24 96.53 115.5 114.42 56.51 134.05 61.26 116.15 120.24"/><ellipse class="cls-1" cx="28.51" cy="35.9" rx="13.64" ry="12.18"/><ellipse class="cls-1" cx="45.37" cy="22.17" rx="14.13" ry="12.62"/><ellipse class="cls-1" cx="12.15" cy="52.95" rx="12.15" ry="17.27"/><ellipse class="cls-1" cx="61.74" cy="11.99" rx="13.14" ry="11.74"/><ellipse class="cls-1" cx="85.04" cy="10.44" rx="23.55" ry="8.86"/><ellipse class="cls-1" cx="7.44" cy="71.77" rx="7.44" ry="8.64"/><ellipse class="cls-1" cx="9.67" cy="85.72" rx="5.21" ry="11.51"/><ellipse class="cls-1" cx="15.37" cy="99.45" rx="5.95" ry="8.86"/><ellipse class="cls-1" cx="40.17" cy="118.93" rx="11.9" ry="10.63"/><ellipse class="cls-1" cx="26.03" cy="110.74" rx="10.66" ry="9.52"/><ellipse class="cls-1" cx="112.07" cy="10.21" rx="12.4" ry="4.21"/><ellipse class="cls-1" cx="129.17" cy="23.06" rx="11.16" ry="13.95"/><ellipse class="cls-1" cx="55.29" cy="126.46" rx="9.67" ry="7.53"/><ellipse class="cls-1" cx="117.52" cy="127.79" rx="6.94" ry="6.2"/><ellipse class="cls-1" cx="128.18" cy="125.8" rx="12.15" ry="5.54"/><ellipse class="cls-1" cx="141.57" cy="106.53" rx="11.65" ry="17.27"/><ellipse class="cls-1" cx="146.53" cy="106.75" rx="15.62" ry="4.65"/><ellipse class="cls-1" cx="168.84" cy="62.25" rx="11.16" ry="21.7"/><ellipse class="cls-1" cx="166.61" cy="78.63" rx="13.39" ry="11.96"/><ellipse class="cls-1" cx="170.08" cy="88.15" rx="7.93" ry="13.95"/><ellipse class="cls-1" cx="160.91" cy="101" rx="8.68" ry="5.54"/><ellipse class="cls-1" cx="154.21" cy="26.16" rx="7.93" ry="9.52"/><ellipse class="cls-1" cx="150.99" cy="35.46" rx="21.57" ry="9.52"/><ellipse class="cls-1" cx="137.85" cy="21.06" rx="10.91" ry="7.53"/><rect class="cls-3" x="63.22" y="97.45" width="52.07" height="102.3" rx="22.61"/><ellipse class="cls-2" cx="104.95" cy="125.8" rx="6.62" ry="3.32"/><ellipse class="cls-2" cx="76.69" cy="125.8" rx="6.62" ry="3.32"/><ellipse cx="76.36" cy="126.46" rx="2.48" ry="2.21"/><ellipse cx="105.12" cy="126.46" rx="2.48" ry="2.21"/></svg>
