<svg id="Layer_1" data-name="Layer 1" xmlns="http://www.w3.org/2000/svg" width="85" height="155" viewBox="0 0 85 155"><defs><style>.cls-1{fill:#f4b62c;}.cls-2,.cls-3{fill:none;stroke-miterlimit:10;}.cls-2{stroke:#000;}.cls-3{stroke:#27af2c;stroke-linecap:round;stroke-width:5px;}.cls-4{fill:#fff;}</style></defs><path class="cls-1" d="M25.65,142.28.85,61.84a18.05,18.05,0,0,1,17-23.36l47.79-.68a18,18,0,0,1,17.61,23l-23,81.13C55.35,159.18,31,159.45,25.65,142.28Z"/><line class="cls-2" x1="6.04" y1="78.71" x2="43.92" y2="78.71"/><line class="cls-2" x1="70.23" y1="107.54" x2="35.15" y2="106.75"/><line class="cls-2" x1="23.93" y1="136.76" x2="43.57" y2="136.76"/><line class="cls-2" x1="84.96" y1="52.25" x2="59.7" y2="52.25"/><line class="cls-3" x1="40.76" y1="41.98" x2="26.03" y2="12.76"/><line class="cls-3" x1="42.87" y1="2.49" x2="42.87" y2="41.98"/><line class="cls-3" x1="54.09" y1="15.13" x2="44.97" y2="41.98"/><ellipse class="cls-4" cx="26.38" cy="69.23" rx="11.57" ry="5.92"/><ellipse cx="27.78" cy="71.6" rx="3.51" ry="3.95"/><ellipse class="cls-4" cx="61.46" cy="69.23" rx="11.57" ry="5.92"/><ellipse cx="62.86" cy="71.6" rx="3.51" ry="3.95"/></svg>
