<svg id="Layer_1" data-name="Layer 1" xmlns="http://www.w3.org/2000/svg" width="220" height="40" viewBox="0 0 220 40"><defs><style>.cls-1{fill:#e25252;}.cls-2{fill:#27af2c;stroke:#000;stroke-miterlimit:10;}</style></defs><polygon class="cls-1" points="197.68 35.61 177.24 15.09 217.82 14.81 197.68 35.61"/><ellipse class="cls-1" cx="187.13" cy="9.76" rx="11.78" ry="10.15"/><ellipse class="cls-1" cx="207.75" cy="9.76" rx="11.45" ry="10.15"/><polygon class="cls-1" points="142.68 35.61 122.24 15.09 162.82 14.81 142.68 35.61"/><ellipse class="cls-1" cx="132.13" cy="9.76" rx="11.78" ry="10.15"/><ellipse class="cls-1" cx="152.75" cy="9.76" rx="11.45" ry="10.15"/><polygon class="cls-1" points="87.68 35.61 67.24 15.09 107.82 14.81 87.68 35.61"/><ellipse class="cls-1" cx="77.13" cy="9.76" rx="11.78" ry="10.15"/><ellipse class="cls-1" cx="97.75" cy="9.76" rx="11.45" ry="10.15"/><path class="cls-2" d="M16.71,32.79c-1,1.43-4.82,1.34-6.34,1.64C8.09,34.9,6.3,35.61,4,35a1.7,1.7,0,0,1-1.39-1.36,155.5,155.5,0,0,1-1-16c.05-2.8.94-14.24,2.5-16.19.64-.77,3.21-.71,3.8.09,1.57,2.07.91,5.64.91,8.12,0,2.63,0,5.25-.05,7.89,0,2.79,0,5.59-.09,8.39,0,1.47-.09,2.95-.16,4.43,0,.14,0,.41-.06.73C11.62,30.79,18.37,30.4,16.71,32.79Z"/><path class="cls-2" d="M25.62,19.17c-.09,2.68-1.11,12.8-2.2,15-.39.75-3.64.73-4-.05-1-2.22-1.36-9.93-1.36-12.32A88.4,88.4,0,0,1,19.19,7.12c.23-1.7-.62-5.3,1.93-5.59,1.16-.14,3.48.18,3.73,1.61A78.82,78.82,0,0,1,25.62,19.17Z"/><path class="cls-2" d="M49.93,1.55c.61-.09,1.56-.07,1.61.75a4.43,4.43,0,0,1-.66,2A17.25,17.25,0,0,0,50.11,7l-1.57,5.59C47,18.42,45.4,24.31,43.81,30.17c-.52,1.91-1.23,4.28-3.37,4.92-3.57,1.06-5.22-1-6.73-4.17-2.22-4.61-4.06-13.82-4.59-19.34-.66-6.66-.45-4.94.34-9.33.23-1.27,3.91-1.15,4.28,0,1.48,4.87,2.2,10.05,3.29,15,.57,2.64,1.1,5.28,1.64,7.89.27,1.32.55,2.64.84,3.93a4.71,4.71,0,0,0,.14.48c.64-1.73,1.23-3.52,1.79-5.3.41-1.27.82-2.5,1.16-3.79.73-2.75,1.48-5.53,2.23-8.28C45.7,9,46.38,5.85,48.08,3a3.63,3.63,0,0,1,.75-1A2.22,2.22,0,0,1,49.93,1.55Z"/><path class="cls-2" d="M58.7,14.71c0,1.57-2.5,1.94-3.57,2-1.3,0-3.34-.43-3.57-2a12.54,12.54,0,0,1,0-2.45c.07-.93.52-3,1.82-3.07s2.57-.64,3.66.16C58.54,10.49,58.63,12.94,58.7,14.71ZM59,30c0,1.57-2.5,1.93-3.57,2-1.3,0-3.34-.43-3.57-2a12.64,12.64,0,0,1,0-2.46c.07-.93.52-3,1.82-3.07s2.57-.63,3.66.16C58.79,25.74,58.88,28.2,59,30Z"/></svg>
