<svg id="Layer_1" data-name="Layer 1" xmlns="http://www.w3.org/2000/svg" width="310" height="440" viewBox="0 0 310 440"><defs><style>.cls-1,.cls-3,.cls-7,.cls-8{fill:none;stroke-linecap:round;}.cls-1{stroke:#f7f77f;stroke-width:20px;}.cls-1,.cls-3,.cls-8{stroke-linejoin:round;}.cls-2{fill:#f7f77f;}.cls-3,.cls-7,.cls-8{stroke:#000;}.cls-4{fill:#e25252;}.cls-5{fill:#fff;}.cls-6{fill:#d075a8;}.cls-7{stroke-miterlimit:10;stroke-width:8px;}.cls-8{stroke-width:3px;}</style></defs><path class="cls-1" d="M149.12,154.21c-9.75,20-46.34,24.67-81.72,10.4S11.23,122.55,21,102.54"/><rect class="cls-2" x="205.27" y="330.99" width="11.25" height="88.73" transform="translate(421.78 750.7) rotate(-180)"/><path class="cls-3" d="M211,383.72c-1.84.12-3.52-2.65-3.77-6.18s1-6.47,2.88-6.58"/><ellipse class="cls-2" cx="193.51" cy="424.88" rx="23.98" ry="11.39" transform="translate(-115.57 74.96) rotate(-16.97)"/><rect class="cls-2" x="113.14" y="330.99" width="11.25" height="88.73" transform="translate(237.53 750.7) rotate(-180)"/><path class="cls-3" d="M118.85,383.72c-1.83.12-3.52-2.65-3.76-6.18s1-6.47,2.87-6.58"/><ellipse class="cls-2" cx="102.43" cy="419.71" rx="21.96" ry="9.07"/><path class="cls-4" d="M117,211.56C73.28,255.58,67.08,341,138.9,354.38c72.44,13.48,142.57-40.23,144-98.56,1.29-54.08-22.6-145.32-85.24-148.92C120.87,102.48,149.36,179,117,211.56Z"/><ellipse class="cls-2" cx="198.37" cy="81.39" rx="61.79" ry="111.32" transform="translate(106.54 275.15) rotate(-86.95)"/><ellipse class="cls-5" cx="145.61" cy="62.42" rx="7.75" ry="15.24" transform="translate(67.44 200.22) rotate(-83.64)"/><ellipse class="cls-5" cx="187.67" cy="67.53" rx="9.72" ry="19.54" transform="translate(99.71 246.53) rotate(-83.62)"/><path class="cls-6" d="M182.28,112.55a111.36,111.36,0,0,1-20-1.28,104.79,104.79,0,0,1-22.63-5.85Z"/><ellipse cx="189.92" cy="67.55" rx="4.51" ry="8.65" transform="translate(88.76 241.91) rotate(-79.46)"/><ellipse cx="147.69" cy="62.29" rx="3.03" ry="5.62" transform="translate(69.54 202.24) rotate(-83.69)"/><path class="cls-4" d="M136.17,98.33a4.28,4.28,0,0,0-8.56,0c-1.73-1.78-2.56-3.57-2.27-5.28.52-3,4.38-5.26,10.38-6.56a4.28,4.28,0,1,0,8.05-1.08c2.41-.16,5-.22,7.72-.17a4.29,4.29,0,1,0,7.11.37c2.57.22,5.22.53,7.92.94l2.37.38c-.53,3.14,1.09,6,3.74,6.54S177.88,92,178.78,89A90.31,90.31,0,0,1,189,92.29c-.08.26-.16.52-.22.79-.72,3.27.92,6.35,3.68,6.89A5.4,5.4,0,0,0,198,96.88c3.84,2.6,5.87,5.34,5.43,7.89-.63,3.75-6.46,6.31-15.15,7.34a4.29,4.29,0,1,0-8.23-1.68,4.22,4.22,0,0,0,.59,2.15,109.66,109.66,0,0,1-15-.85,4.29,4.29,0,1,0-7.16-1.1c-3.24-.59-6.34-1.29-9.25-2.08a4.28,4.28,0,1,0-7.17-3.16,4.53,4.53,0,0,0,.11,1c-.86-.31-1.7-.63-2.51-1a54.77,54.77,0,0,1-6.43-3A4.29,4.29,0,0,0,136.17,98.33Z"/><path class="cls-6" d="M139.67,105.42a104.79,104.79,0,0,0,22.63,5.85,111.36,111.36,0,0,0,20,1.28,2.64,2.64,0,0,0,.75-1.37c.63-3.71-8.56-8.18-20.54-10s-22.2-.25-22.82,3.46A2,2,0,0,0,139.67,105.42Z"/><path class="cls-5" d="M184.38,106.15a4.29,4.29,0,0,1,3.94,6c-1.88.22-3.9.37-6,.44-.53,0-1.06,0-1.6,0a4.22,4.22,0,0,1-.59-2.15A4.29,4.29,0,0,1,184.38,106.15Z"/><path class="cls-5" d="M162.42,104.64a4.28,4.28,0,0,1,3.23,7.09c-1.11-.14-2.22-.29-3.35-.46-1.29-.19-2.56-.41-3.81-.64a4.22,4.22,0,0,1-.36-1.71A4.28,4.28,0,0,1,162.42,104.64Z"/><path class="cls-5" d="M146.35,101.11a4.28,4.28,0,0,1,2.89,7.44c-2.5-.67-4.87-1.4-7.06-2.18a4.53,4.53,0,0,1-.11-1A4.28,4.28,0,0,1,146.35,101.11Z"/><path class="cls-5" d="M127.61,98.28a4.28,4.28,0,1,1,5.63,4.12A24.36,24.36,0,0,1,127.61,98.28Z"/><path class="cls-5" d="M154.92,92a4.28,4.28,0,0,1-3.43-6.84c2.29,0,4.66.17,7.11.37A4.27,4.27,0,0,1,154.92,92Z"/><path class="cls-5" d="M192.45,100c-2.76-.54-4.4-3.62-3.68-6.89.06-.27.14-.53.22-.79a47.44,47.44,0,0,1,9,4.59A5.4,5.4,0,0,1,192.45,100Z"/><path class="cls-5" d="M172.63,93.42c-2.65-.52-4.27-3.4-3.74-6.54,3.46.59,6.77,1.31,9.89,2.12C177.88,92,175.23,93.93,172.63,93.42Z"/><path class="cls-5" d="M139.92,91.53a4.27,4.27,0,0,1-4.2-5.09,58.23,58.23,0,0,1,8.05-1.08,4.28,4.28,0,0,1-3.85,6.17Z"/><path class="cls-7" d="M212.23,5.83c-10.54,2-17.35,11.76-15.21,21.83"/><path class="cls-7" d="M176.41,6.92c11.14,5.18,17.68,14.13,14.6,20"/><path class="cls-8" d="M213.67,53.31c-13.4-10.82-30-13.27-37.16-5.46"/><path class="cls-8" d="M131.89,51c11-6.77,23.33-7.39,27.5-1.38"/><path class="cls-7" d="M226.65,6.39c-8-2.71-19,7.14-24.73,22"/><path class="cls-3" d="M223,109.49c-3.53,1.21-8.37-2.89-10.8-9.16s-1.55-12.35,2-13.56"/><path class="cls-3" d="M263.38,77.82c-2.55.88-5.52-.75-6.65-3.65s0-6,2.58-6.82"/><path class="cls-3" d="M252.45,54c7.88-2.09,16.28,3,18.78,11.29s-1.86,16.78-9.73,18.87"/><path class="cls-3" d="M59.55,164.58c-1.26,1.26-4.49.33-7.23-2.09s-3.94-5.4-2.69-6.66"/><line class="cls-3" x1="211.19" y1="97.4" x2="202.34" y2="101.29"/><path class="cls-1" d="M240.11,190.54c10.31,11.49-2.73,36.69-29.13,56.27S154.83,273,144.52,261.47"/><path class="cls-3" d="M215.77,241.89c1,1.42-.62,4.2-3.71,6.2s-6.45,2.48-7.49,1"/></svg>
