<svg id="Layer_1" data-name="Layer 1" xmlns="http://www.w3.org/2000/svg" width="165" height="40" viewBox="0 0 165 40"><defs><style>.cls-1{fill:#27af2c;stroke:#000;stroke-miterlimit:10;}</style></defs><path class="cls-1" d="M10.3,21.7c-.23.05-3.14.59-3.16.34.09,3.25.18,6.44.09,9.71,0,1.16-.18,2.34-1.34,2.91-2.21,1.09-4.07-1.5-4.37-3.39A102.26,102.26,0,0,1,.36,18.43V17a54.84,54.84,0,0,1,1-9.8c.25-1.31.53-2.61.87-3.91a7,7,0,0,1,.86-2.09c.59-.88,2.09-1.5,3-.75.11.09.21.21.3.3l.45.47A3.91,3.91,0,0,1,9,.19L9.11.13h.3a5.22,5.22,0,0,1,2.5.38h0a8.69,8.69,0,0,1,3.64,1.94,12,12,0,0,1,3.5,7.36A11.24,11.24,0,0,1,10.3,21.7Zm3.86-11.18a12,12,0,0,0-2.5-7A3.44,3.44,0,0,0,8.8,2.22,2.14,2.14,0,0,0,7.23,4.17c-.05,2.32.07,4.62,0,6.94S7,15.88,7.07,18.27c0,.32,0,.64,0,.95.3,0,.64-.09,1-.16a6,6,0,0,0,3-1.77A11,11,0,0,0,14.16,10.52Z"/><path class="cls-1" d="M35.4,34.93a11.78,11.78,0,0,1-12.51-5.75c-2.25-4-2.27-8.75-2.07-13.16A17.19,17.19,0,0,1,24.35,5.61,12.69,12.69,0,0,1,37,1.45c4.23,1.15,6.91,4.88,7.89,8.63a36.4,36.4,0,0,1,.84,4.28C46.83,22.13,45.38,33.05,35.4,34.93Zm3-25.35C37.85,7.49,36.69,3.74,33.83,4c-2.3.22-4,2.88-4.87,4.68-1.59,3.3-1.54,7.53-1.5,11.1s.59,7.43,2.62,10.54a3.48,3.48,0,0,0,3.13,1.89c2.19-.16,3.37-2.66,4.23-4.3a18.76,18.76,0,0,0,2-7A32.88,32.88,0,0,0,38.37,9.58Z"/><path class="cls-1" d="M56,19.2c-.1,2.68-1.12,12.8-2.21,15-.39.75-3.64.73-4,0-1-2.23-1.36-9.94-1.36-12.33A88.4,88.4,0,0,1,49.58,7.15c.23-1.7-.61-5.3,1.93-5.59,1.16-.14,3.48.18,3.73,1.61A78.82,78.82,0,0,1,56,19.2Z"/><path class="cls-1" d="M79.52,33.16A3,3,0,0,1,75.77,35a3.71,3.71,0,0,1-2.52-2.39c-2-5.53-3.94-11.32-6.12-16.78-.48-1.21-1-2.41-1.45-3.66-.07,1.54-.14,3.07-.18,4.59-.1,2.84-.14,5.66-.23,8.5-.07,2.57.2,5.46-.43,8-.41,1.62-4.94,1.85-5.35.14-.63-2.68-1-9.37-.77-16.53C58.83,14.06,60.13,3,61.79,1c.45-.52,2.77-.47,3.16.14a4.48,4.48,0,0,1,.23.39.39.39,0,0,1,.18.13c2.36,4.41,3.86,9.32,5.77,13.92.85,2.07,1.8,4.09,2.76,6.13,0-1.29.06-2.59.11-3.86.11-2.86.2-5.73.45-8.57.23-2.57.21-5.41,1.5-7.71.48-.82,3.66-.77,4,.16,1,2.57,1,13.82,1,16.51C80.89,21.09,80.46,30.84,79.52,33.16Z"/><path class="cls-1" d="M102.62,2.74a.17.17,0,0,1,0,.14c-.52,2.5-5,2.27-7.52,2.2a105.42,105.42,0,0,1,.84,14.05c0,2.69-.37,5.41-.46,8.1A18,18,0,0,1,94,34.39c-.36.77-3.39.77-3.75,0A20.42,20.42,0,0,1,88.52,27a178.06,178.06,0,0,1,.39-19.85,14.12,14.12,0,0,0,.23-2H87.23c-1.43,0-3,0-3.91-1.16a.61.61,0,0,1,0-.61c1-2.32,6-1.89,7.89-2a39.5,39.5,0,0,1,5.66,0,11.87,11.87,0,0,1,5,.61c.25.09.8.3.86.62A.44.44,0,0,1,102.62,2.74Z"/><path class="cls-1" d="M110.62,14.75c0,1.56-2.5,1.93-3.57,1.95-1.29.05-3.34-.43-3.57-1.95a13.48,13.48,0,0,1,0-2.46c.07-.93.52-3,1.82-3.07s2.57-.64,3.66.16C110.46,10.52,110.55,13,110.62,14.75ZM110.87,30c0,1.57-2.5,1.93-3.57,2-1.29,0-3.34-.44-3.57-2a13.38,13.38,0,0,1,0-2.45c.07-.94.52-3.05,1.82-3.07s2.57-.64,3.66.16C110.71,25.77,110.8,28.23,110.87,30Z"/><path class="cls-1" d="M132.63,31.82c-.23,1.48-.5,2.52-2.16,2.8a5.16,5.16,0,0,1-2.41-.12c-1.21-.38-1-1.2-1-2.34l-.28-7.91c-.13-5.28-.18-10.55.14-15.83a7,7,0,0,1-6,.6.36.36,0,0,1-.22-.25c.27-.85,1.18-.75,1.91-.89,2.38-.41,3.18-2.82,5.2-3.66a5.74,5.74,0,0,1,2.28-.39c3,.18,3,7.69,3.13,9.66.14,1.71.21,3.39.21,5.1A90.06,90.06,0,0,1,132.63,31.82Z"/><path class="cls-1" d="M143.25,12.52c-.16,1.61-.32,3.25-.46,4.86a10.3,10.3,0,0,1,8.21,1c4.07,2.48,5.75,8.62,2.73,12.12a11.7,11.7,0,0,1-12,3.89c-3.66-1-7.07-5.73-3.34-8.78.5-.38,3.57-.91,3.61.16.07,1.82-.22,4.84,1.87,5.73,2.27,1,3.89-1.82,4.36-3.57a10.29,10.29,0,0,0-.47-6.55c-1.55-3.45-4.17-1.18-6.51-.18a4,4,0,0,1-2.88.05c-1.26-.48-1.48-1.75-1.76-2.94-.45-2,.07-4.16.32-6.18.37-3.14.78-7.23,4.55-7.66a53.12,53.12,0,0,1,11.41-.39c.44,0,2.28.5,1.71,1.37-1.18,1.79-4,1.38-5.82,1.45a42.48,42.48,0,0,1-4.8.25c-.09.52-.2,1.07-.34,1.62A31.91,31.91,0,0,1,143.25,12.52Z"/></svg>
