<svg id="Layer_1" data-name="Layer 1" xmlns="http://www.w3.org/2000/svg" xmlns:xlink="http://www.w3.org/1999/xlink" width="380" height="160" viewBox="0 0 380 160"><defs><style>.cls-1{fill:none;}.cls-2{isolation:isolate;}.cls-3{clip-path:url(#clip-path);}.cls-4{clip-path:url(#clip-path-2);}.cls-5{clip-path:url(#clip-path-3);}.cls-6{fill:#1a741d;}.cls-7{fill:#19701c;}.cls-8{fill:#186d1b;}.cls-9{clip-path:url(#clip-path-4);}.cls-10{clip-path:url(#clip-path-5);}.cls-11{fill:#1c7c1f;}.cls-12{clip-path:url(#clip-path-6);}.cls-13{fill:#145b17;}.cls-14{fill:#145916;}.cls-15{clip-path:url(#clip-path-7);}.cls-16{clip-path:url(#clip-path-8);}.cls-17{clip-path:url(#clip-path-9);}.cls-18{fill:#155f18;}.cls-19{fill:#166219;}.cls-20{fill:#17661a;}.cls-21{fill:#17691a;}.cls-22{fill:#229926;}.cls-23{clip-path:url(#clip-path-10);}.cls-24{fill:#27af2c;stroke:#000;stroke-linejoin:round;stroke-width:4px;}</style><clipPath id="clip-path"><path class="cls-1" d="M329.71,118.75l-22.8-12.4c24.79-3.48,45-28.09,45-54.83l22.79,12.4C374.69,90.66,354.49,115.27,329.71,118.75Z"/></clipPath><clipPath id="clip-path-2"><path class="cls-1" d="M331.07,9.29l22.8,12.4c12.57,6.84,20.91,20.83,20.88,38.06L352,47.35C352,30.12,343.64,16.13,331.07,9.29Z"/></clipPath><clipPath id="clip-path-3"><path class="cls-1" d="M331.08,9.29l22.79,12.4a38.43,38.43,0,0,0-24-4.13L307.1,5.16A38.51,38.51,0,0,1,331.08,9.29Z"/></clipPath><clipPath id="clip-path-4"><path class="cls-1" d="M333.93,4l22.79,12.4A43,43,0,0,0,329.9,11.8L307.11-.6A43,43,0,0,1,333.93,4Z"/></clipPath><clipPath id="clip-path-5"><path class="cls-1" d="M48.93,150.71l-22.79-12.4a38.47,38.47,0,0,0,24,4.13l22.79,12.4A38.48,38.48,0,0,1,48.93,150.71Z"/></clipPath><clipPath id="clip-path-6"><path class="cls-1" d="M48.93,150.71l-22.79-12.4c-12.57-6.84-20.92-20.83-20.89-38.06L28,112.65C28,129.88,36.36,143.87,48.93,150.71Z"/></clipPath><clipPath id="clip-path-7"><path class="cls-1" d="M46.07,156l-22.79-12.4C9.21,135.93-.12,120.28-.09,101l22.8,12.4C22.67,132.68,32,148.33,46.07,156Z"/></clipPath><clipPath id="clip-path-8"><path class="cls-1" d="M5.26,96.08a53.26,53.26,0,0,1,.93-9.88L29,98.6a55,55,0,0,0-.93,9.88Z"/></clipPath><clipPath id="clip-path-9"><path class="cls-1" d="M6.19,86.2c4.24-22.68,22.42-41.9,44.1-44.95l22.8,12.4C51.4,56.7,33.22,75.92,29,98.6Z"/></clipPath><clipPath id="clip-path-10"><path class="cls-1" d="M22.72,109.23-.08,96.83C0,66.91,22.58,39.39,50.3,35.49l22.8,12.4C45.37,51.79,22.77,79.31,22.72,109.23Z"/></clipPath></defs><g class="cls-2"><polygon points="374.74 63.92 351.95 51.52 351.96 47.35 374.75 59.75 374.74 63.92"/><g class="cls-2"><g class="cls-3"><g class="cls-2"><path d="M329.71,118.75l-22.8-12.4a45.8,45.8,0,0,0,13.1-3.94l22.79,12.4a45.64,45.64,0,0,1-13.09,3.94"/><path d="M342.8,114.81,320,102.41a51.13,51.13,0,0,0,7.3-4.21l22.79,12.4a50.06,50.06,0,0,1-7.3,4.21"/><path d="M350.1,110.6,327.31,98.2a53.31,53.31,0,0,0,5.44-4.31l22.8,12.4a53.42,53.42,0,0,1-5.45,4.31"/><path d="M355.55,106.29l-22.8-12.4a56,56,0,0,0,4.6-4.64l22.8,12.4a57.57,57.57,0,0,1-4.6,4.64"/><path d="M360.15,101.65l-22.8-12.4a59.26,59.26,0,0,0,4.06-5.15L364.2,96.5a61.13,61.13,0,0,1-4.05,5.15"/><path d="M364.2,96.5,341.41,84.1a59.54,59.54,0,0,0,3.67-6l22.8,12.4a59.63,59.63,0,0,1-3.68,6"/><path d="M367.88,90.54l-22.8-12.4a58.53,58.53,0,0,0,3.41-7.57L371.29,83a59.92,59.92,0,0,1-3.41,7.57"/><path d="M371.29,83l-22.8-12.4a55.45,55.45,0,0,0,3.46-19l22.79,12.4a55.72,55.72,0,0,1-3.45,19"/></g></g></g><g class="cls-2"><g class="cls-4"><g class="cls-2"><path d="M374.75,59.75,352,47.35c0-17.23-8.32-31.22-20.89-38.06l22.8,12.4c12.57,6.84,20.91,20.83,20.88,38.06"/></g></g></g><g class="cls-2"><g class="cls-5"><g class="cls-2"><path class="cls-6" d="M329.89,17.56,307.1,5.16A39.7,39.7,0,0,1,322.59,6l22.8,12.4a39.74,39.74,0,0,0-15.5-.79"/><path class="cls-7" d="M345.39,18.35,322.59,6a36.89,36.89,0,0,1,7.11,2.63L352.5,21a37.14,37.14,0,0,0-7.11-2.63"/><path class="cls-8" d="M352.5,21,329.7,8.58c.47.23.92.46,1.38.71l22.79,12.4c-.45-.25-.91-.48-1.37-.71"/></g></g></g><g class="cls-2"><g class="cls-9"><g class="cls-2"><path d="M329.9,11.8,307.11-.6a44.38,44.38,0,0,1,17.33.89l22.8,12.4a44.44,44.44,0,0,0-17.34-.89"/><path d="M347.24,12.69,324.44.29a40.89,40.89,0,0,1,7.95,2.94l22.8,12.4a41.13,41.13,0,0,0-7.95-2.94"/><path d="M355.19,15.63l-22.8-12.4c.52.25,1,.52,1.54.79l22.79,12.4c-.5-.27-1-.54-1.53-.79"/></g></g></g><polygon points="72.9 154.84 50.11 142.44 306.91 106.35 329.71 118.75 72.9 154.84"/><g class="cls-2"><g class="cls-10"><g class="cls-2"><path d="M48.93,150.71l-22.79-12.4c.45.25.91.48,1.37.71l22.79,12.4c-.46-.23-.92-.46-1.37-.71"/><path d="M50.3,151.42,27.51,139a36.89,36.89,0,0,0,7.11,2.63l22.79,12.4a37.14,37.14,0,0,1-7.11-2.63"/><path d="M57.41,154.05l-22.79-12.4a39.7,39.7,0,0,0,15.49.79l22.79,12.4a39.7,39.7,0,0,1-15.49-.79"/></g></g></g><polygon class="cls-11" points="73.09 53.65 50.29 41.25 307.1 5.16 329.89 17.56 73.09 53.65"/><polygon points="73.1 47.89 50.3 35.49 307.11 -0.6 329.9 11.8 73.1 47.89"/><g class="cls-2"><g class="cls-12"><g class="cls-2"><path class="cls-13" d="M48.93,150.71l-22.79-12.4c-12.57-6.84-20.92-20.83-20.89-38.06L28,112.65c0,17.23,8.32,31.22,20.89,38.06"/></g></g></g><polygon class="cls-14" points="28.04 112.65 5.25 100.25 5.26 96.08 28.05 108.48 28.04 112.65"/><g class="cls-2"><g class="cls-15"><g class="cls-2"><path d="M46.07,156l-22.79-12.4C9.21,135.93-.12,120.28-.09,101l22.8,12.4c0,19.28,9.3,34.93,23.36,42.58"/></g></g></g><g class="cls-2"><g class="cls-16"><g class="cls-2"><path class="cls-13" d="M28.05,108.48,5.26,96.08A55.68,55.68,0,0,1,8.71,77l22.8,12.4a55.45,55.45,0,0,0-3.46,19"/></g></g></g><polygon points="22.71 113.4 -0.09 101 -0.08 96.83 22.72 109.23 22.71 113.4"/><g class="cls-2"><g class="cls-17"><g class="cls-2"><path class="cls-13" d="M28.05,108.48,5.26,96.08A55.68,55.68,0,0,1,8.71,77l22.8,12.4a55.45,55.45,0,0,0-3.46,19"/><path class="cls-18" d="M31.51,89.43,8.71,77a59.92,59.92,0,0,1,3.41-7.57l22.8,12.4a58.53,58.53,0,0,0-3.41,7.57"/><path class="cls-19" d="M34.92,81.86l-22.8-12.4a60.11,60.11,0,0,1,3.67-5.95l22.8,12.4a58.28,58.28,0,0,0-3.67,6"/><path class="cls-20" d="M38.59,75.91l-22.8-12.4a58.18,58.18,0,0,1,4.06-5.15l22.8,12.4a56.38,56.38,0,0,0-4.06,5.15"/><path class="cls-21" d="M42.65,70.76l-22.8-12.4a56.1,56.1,0,0,1,4.6-4.65l22.79,12.4a54.47,54.47,0,0,0-4.59,4.65"/><path class="cls-8" d="M47.24,66.11,24.45,53.71A53.42,53.42,0,0,1,29.9,49.4L52.69,61.8a53.42,53.42,0,0,0-5.45,4.31"/><path class="cls-7" d="M52.69,61.8,29.9,49.4a50.06,50.06,0,0,1,7.3-4.21L60,57.59a51.13,51.13,0,0,0-7.3,4.21"/><path class="cls-6" d="M60,57.59,37.2,45.19a45.73,45.73,0,0,1,13.09-3.94l22.8,12.4A45.8,45.8,0,0,0,60,57.59"/></g></g></g><path class="cls-22" d="M329.89,17.56C354.68,14.07,374.8,33,374.75,59.75v4.17c-.05,26.74-20.25,51.35-45,54.83L72.9,154.84C48.12,158.32,28,139.39,28,112.65v-4.17c.05-26.75,20.26-51.35,45-54.83Z"/><g class="cls-2"><g class="cls-23"><g class="cls-2"><path d="M22.72,109.23-.08,96.83A62.33,62.33,0,0,1,3.79,75.52l22.79,12.4a62.09,62.09,0,0,0-3.86,21.31"/><path d="M26.58,87.92,3.79,75.52A65.77,65.77,0,0,1,7.6,67.05l22.8,12.4a65.82,65.82,0,0,0-3.82,8.47"/><path d="M30.4,79.45,7.6,67.05a66.5,66.5,0,0,1,4.11-6.66L34.5,72.79a66.41,66.41,0,0,0-4.1,6.66"/><path d="M34.5,72.79,11.71,60.39a65.32,65.32,0,0,1,4.54-5.76L39,67a65.32,65.32,0,0,0-4.54,5.76"/><path d="M39,67,16.25,54.63a64.7,64.7,0,0,1,5.14-5.2l22.8,12.4A61.66,61.66,0,0,0,39,67"/><path d="M44.19,61.83l-22.8-12.4a62.23,62.23,0,0,1,6.09-4.82L50.28,57a61.06,61.06,0,0,0-6.09,4.82"/><path d="M50.28,57l-22.8-12.4a57.43,57.43,0,0,1,8.17-4.71l22.8,12.4A56.34,56.34,0,0,0,50.28,57"/><path d="M58.45,52.3,35.65,39.9A51.36,51.36,0,0,1,50.3,35.49l22.8,12.4A51.36,51.36,0,0,0,58.45,52.3"/></g></g></g><path d="M329.9,11.8c27.73-3.9,50.24,17.28,50.19,47.2v4.17c-.06,29.92-22.66,57.44-50.38,61.34L72.89,160.6c-27.73,3.9-50.24-17.28-50.18-47.2v-4.17c.05-29.92,22.65-57.44,50.38-61.34Zm44.84,52.12V59.75c.05-26.75-20.07-45.68-44.86-42.19L73.09,53.65c-24.78,3.48-45,28.08-45,54.83v4.17C28,139.39,48.12,158.32,72.9,154.84l256.81-36.09c24.78-3.48,45-28.09,45-54.83"/></g><path class="cls-24" d="M96.21,134.68c-4,0-8.08-1.22-10.77-4.36-2.24-2.61-4.08-7.52-1.34-10.32,1.17-1.22,6-2.23,7-.37,1.35,2.48,1.2,11.57,6.65,9.56a5.88,5.88,0,0,0,3.11-5.31c-.28-2.91-2.45-5.27-4.53-7-7-6-15.42-11.27-16.45-21.41-.93-8.7,5.07-16.58,14.15-16,9.59.54,14.77,11.1,11.26,19.72-.65,1.59-6,2.17-6.64.4-.9-2.7-.76-5.52-1.45-8.29-.38-1.58-2.43-7.17-4.79-6.78-3.82.61-3.58,9.12-3,11.61,1.2,5.49,7,8.88,11.21,12.24,3.64,2.92,7.59,4.38,9.75,10.25C113.68,127.77,104.28,134.59,96.21,134.68Z"/><path class="cls-24" d="M127.53,107.64c-.34.13-4.8,1.69-4.9,1.29.9,5.2,1.78,10.29,2.4,15.57.23,1.87.26,3.81-1.44,5-3.22,2.28-6.75-1.44-7.66-4.41a169,169,0,0,1-4.81-20.35c-.11-.77-.22-1.54-.33-2.34a90.7,90.7,0,0,1-.7-16c.08-2.17.21-4.32.45-6.48a11.47,11.47,0,0,1,.87-3.56c.73-1.57,3-2.91,4.56-1.92a4.62,4.62,0,0,1,.53.41c.29.22.58.43.83.66a6.11,6.11,0,0,1,3.2-2.13,1.58,1.58,0,0,1,.13-.13l.47-.07a8.3,8.3,0,0,1,4,0h0a13.66,13.66,0,0,1,6.18,2.25c3.7,2.54,6.06,6.77,7.22,11C140.88,94.93,135.64,104.78,127.53,107.64ZM131,88.76a19.54,19.54,0,0,0-5.57-10.69c-1.17-1-3.28-1.93-4.8-1.37a3.47,3.47,0,0,0-2,3.51c.47,3.73,1.18,7.4,1.57,11.14s.82,7.71,1.45,11.54c.07.51.15,1,.26,1.53.45-.15,1-.3,1.54-.5a9.49,9.49,0,0,0,4.35-3.56C130,97.2,131.51,92.61,131,88.76Z"/><path class="cls-24" d="M155.39,99.36c.48,4.33,1.21,20.82,0,24.55-.44,1.3-5.57,2-6.24.86-2.06-3.35-4.46-15.63-5-19.47-1.49-10.56-1.47-13-1.68-23.77,0-2.79-2.2-8.37,1.74-9.44,1.8-.49,5.52-.53,6.25,1.71A130.35,130.35,0,0,1,155.39,99.36Z"/><path class="cls-24" d="M186.59,117c-1.24,2.53-7.28,3.29-9.61,4.12-3.47,1.31-6.14,2.86-10,2.43a2.75,2.75,0,0,1-2.5-1.87c-1.36-4.08-4.85-21.17-5.36-25.42-.58-4.5-1.83-23.08.18-26.59.83-1.39,4.89-1.89,6-.75,2.95,3,2.74,8.84,3.31,12.82.65,4.23,1.18,8.44,1.76,12.68.58,4.51,1.23,9,1.81,13.5.3,2.38.54,4.77.77,7.16,0,.22,0,.67.07,1.18C178.1,115,188.65,112.81,186.59,117Z"/><path class="cls-24" d="M211.79,90.91c.48,4.33,1.22,20.83,0,24.55-.43,1.3-5.56,2-6.24.86-2.06-3.35-4.46-15.63-5-19.47-1.49-10.56-1.47-12.95-1.68-23.77,0-2.79-2.2-8.37,1.75-9.44,1.79-.49,5.52-.53,6.24,1.71A129.62,129.62,0,0,1,211.79,90.91Z"/><path class="cls-24" d="M252.31,96.63c0,.27-.1.54-.14.81s0,.68-.07,1c0,0,0,.11,0,.15-.43,3.38-1.35,6.88-3.77,9.37-5.64,5.77-13.56,6.43-20.58,2.89s-10.57-10.58-12.05-17.78c-1.87-8.9-.89-17.59,4-25.45a26.29,26.29,0,0,1,6.94-7.42c6.35-4.42,14.63-1.82,18.55,4.53,1.61,2.56,5,7.51,2,10.18-1.49,1.35-5.29,2.4-6.18-.19a2.4,2.4,0,0,1,0-1c.24-3.66-3.29-14.43-8.4-11.5-3.27,1.87-4.8,6.72-6,10.11a31.33,31.33,0,0,0-1.28,14.18c.74,4.88,1.78,10.06,4.06,14.46.17.35.36.66.55,1a21.41,21.41,0,0,0,1.91,2.32c1.71,1.73,4,3.78,6.47,4,3.19.3,4.32-2.77,4.52-5.45.07-.72.08-1.47.11-2.26a33.53,33.53,0,0,1-.24-3.43c-1.39,0-2.73-.12-3.94-.19a28.93,28.93,0,0,1-3.83-.63,4.25,4.25,0,0,1-1.35-.5c-.55-.26-.89-.58-.9-.95a3.23,3.23,0,0,1-.17-1.65c.23-1.19,2.71-1.75,3.57-1.88,3.91-.51,8.41-1.07,12.32-.54,1.61.21,3.21,1.16,3.63,2.29A4.4,4.4,0,0,1,252.31,96.63Z"/><path class="cls-24" d="M263.55,58.91c1.63,7,1.65,14.72,2.23,21.79.17,2,.35,3.94.52,5.89a39.11,39.11,0,0,1,9.5-.64c.73,0,3.55.52,2.8,1.93-1.41,2.64-4.71,3.1-7.32,3.26-1.38.1-2.92.29-4.46.26.07.74.13,1.47.21,2.21.24,2.43.18,5.6,1,8.21,1.37-.14,2.71-.19,4.08-.39,2.68-.4,5.15-1.52,7.84-1.92,1.11-.17,5.8-.39,5,2-1.19,3.39-7.62,4.43-10.65,5a49.74,49.74,0,0,1-9,.72c-5,.15-4.7-1.42-6.72-6.27a66.2,66.2,0,0,1-4-16.45c-.8-9.36-.74-20,1.74-29.25.28-1.08,2.69-1.6,4.41-1.33A42.25,42.25,0,0,1,273,52.35c2.41,0,8.54-.65,10.53,1.52,2.83,3.08-3.35,4.61-5.18,4.88A61.47,61.47,0,0,1,263.55,58.91Z"/><path class="cls-24" d="M325.69,96.76a4.71,4.71,0,0,1-5.48,3.88,5.9,5.9,0,0,1-4.53-3.24c-4.39-8.41-8.82-17.26-13.52-25.51-1-1.82-2.1-3.64-3.15-5.53.26,2.5.5,5,.78,7.42.52,4.58,1.1,9.12,1.62,13.71.49,4.14,1.59,8.71,1.17,12.92-.27,2.69-7.34,4.12-8.38,1.48-1.63-4.16-3.82-14.8-5.06-26.37-.47-4.55-1-22.61,1.15-26.21.6-1,4.26-1.42,5-.53.14.17.31.37.45.57a.62.62,0,0,1,.32.18c4.75,6.52,8.25,14.06,12.33,21,1.8,3.13,3.77,6.15,5.75,9.21-.26-2.08-.49-4.18-.71-6.23-.49-4.63-1-9.25-1.28-13.88-.24-4.18-.93-8.73.58-12.73.56-1.43,5.58-2.11,6.37-.69,2.14,3.89,4.86,22,5.37,26.28C325,77.05,326.62,92.81,325.69,96.76Z"/></svg>
