<svg id="Layer_1" data-name="Layer 1" xmlns="http://www.w3.org/2000/svg" xmlns:xlink="http://www.w3.org/1999/xlink" width="365" height="180" viewBox="0 0 365 180"><defs><style>.cls-1{fill:none;}.cls-2{isolation:isolate;}.cls-3{clip-path:url(#clip-path);}.cls-4{clip-path:url(#clip-path-2);}.cls-5{clip-path:url(#clip-path-3);}.cls-6{fill:#1a741d;}.cls-7{fill:#19701c;}.cls-8{fill:#186d1b;}.cls-9{clip-path:url(#clip-path-4);}.cls-10{clip-path:url(#clip-path-5);}.cls-11{clip-path:url(#clip-path-6);}.cls-12{fill:#145b17;}.cls-13{clip-path:url(#clip-path-7);}.cls-14{fill:#1c7c1f;}.cls-15{fill:#145916;}.cls-16{clip-path:url(#clip-path-8);}.cls-17{clip-path:url(#clip-path-9);}.cls-18{fill:#17691a;}.cls-19{clip-path:url(#clip-path-10);}.cls-20{clip-path:url(#clip-path-11);}.cls-21{fill:#155f18;}.cls-22{fill:#166219;}.cls-23{fill:#17661a;}.cls-24{fill:#229926;}.cls-25{clip-path:url(#clip-path-12);}.cls-26{fill:#27af2c;stroke:#000;stroke-linejoin:round;stroke-width:4px;}</style><clipPath id="clip-path"><path class="cls-1" d="M322.56,138.11l-22.8-12.4c20.42-2.87,37.07-23.14,37.11-45.17l22.79,12.39C359.62,115,343,135.24,322.56,138.11Z"/></clipPath><clipPath id="clip-path-2"><path class="cls-1" d="M319.74,9.1l22.79,12.4c10.36,5.63,17.23,17.16,17.21,31.36l-22.8-12.4C337,26.26,330.1,14.73,319.74,9.1Z"/></clipPath><clipPath id="clip-path-3"><path class="cls-1" d="M319.74,9.1l22.79,12.4a31.68,31.68,0,0,0-19.75-3.4L300,5.7A31.69,31.69,0,0,1,319.74,9.1Z"/></clipPath><clipPath id="clip-path-4"><path class="cls-1" d="M322.59,3.82l22.79,12.4a36.25,36.25,0,0,0-22.59-3.89L300-.07A36.28,36.28,0,0,1,322.59,3.82Z"/></clipPath><clipPath id="clip-path-5"><path class="cls-1" d="M45.27,170.9,22.48,158.5a31.68,31.68,0,0,0,19.75,3.4L65,174.3A31.69,31.69,0,0,1,45.27,170.9Z"/></clipPath><clipPath id="clip-path-6"><path class="cls-1" d="M45.27,170.9,22.48,158.5c-10.36-5.63-17.24-17.16-17.21-31.36l22.79,12.4C28,153.74,34.91,165.27,45.27,170.9Z"/></clipPath><clipPath id="clip-path-7"><path class="cls-1" d="M42.41,176.18l-22.8-12.4C7.76,157.33-.1,144.14-.07,127.89l22.79,12.4C22.69,156.54,30.56,169.73,42.41,176.18Z"/></clipPath><clipPath id="clip-path-8"><path class="cls-1" d="M24.32,49.56,47.11,62c-.88.66-1.74,1.36-2.58,2.08l-6.94-3.77-6-3.24-3-1.61-1.46-.79-4.17-2.27c-.4-.22-.87-.72-1.31-.72C22.57,50.92,23.43,50.22,24.32,49.56Z"/></clipPath><clipPath id="clip-path-9"><path class="cls-1" d="M20.31,52.94c.47-.44.94-.88,1.43-1.3Q33.13,57.85,44.53,64c-.48.42-1,.85-1.42,1.3Z"/></clipPath><clipPath id="clip-path-10"><path class="cls-1" d="M5.34,87.06a45,45,0,0,1,.77-8.13L28.9,91.33a44.88,44.88,0,0,0-.76,8.13Z"/></clipPath><clipPath id="clip-path-11"><path class="cls-1" d="M20.31,52.94l6.61,3.59,8.73,4.75,1.12.61,1.11.6,4.24,2.31c.3.16.65.54,1,.54a48.29,48.29,0,0,0-14.21,26L16,84.32l-1.49-.81L8.77,80.38a13,13,0,0,0-2.66-1.45A48.34,48.34,0,0,1,20.31,52.94Z"/></clipPath><clipPath id="clip-path-12"><path class="cls-1" d="M22.8,100.22,0,87.82C.05,62.6,19.1,39.41,42.46,36.12l22.79,12.4C41.89,51.81,22.84,75,22.8,100.22Z"/></clipPath></defs><g class="cls-2"><g class="cls-2"><g class="cls-3"><g class="cls-2"><path d="M322.56,138.11l-22.8-12.4a37.6,37.6,0,0,0,10.79-3.25l22.8,12.4a37.69,37.69,0,0,1-10.79,3.25"/><path d="M333.35,134.86l-22.8-12.4a41.54,41.54,0,0,0,6-3.47l22.79,12.4a40.91,40.91,0,0,1-6,3.47"/><path d="M339.36,131.39,316.57,119a44.56,44.56,0,0,0,4.49-3.55l22.79,12.4a43.46,43.46,0,0,1-4.49,3.55"/><path d="M343.85,127.84l-22.79-12.4a47.13,47.13,0,0,0,3.79-3.82L347.64,124a47.13,47.13,0,0,1-3.79,3.82"/><path d="M347.64,124l-22.79-12.4a51.19,51.19,0,0,0,3.34-4.25L351,119.77a49.16,49.16,0,0,1-3.34,4.25"/><path d="M351,119.77l-22.79-12.4a47,47,0,0,0,3-4.9l22.8,12.4a48.84,48.84,0,0,1-3,4.9"/><path d="M354,114.87l-22.8-12.4A48,48,0,0,0,334,96.23l22.79,12.4a47.89,47.89,0,0,1-2.8,6.24"/><path d="M356.81,108.63,334,96.23a45.7,45.7,0,0,0,2.85-15.69l22.79,12.39a45.71,45.71,0,0,1-2.85,15.7"/></g></g></g><polygon points="359.66 92.94 336.87 80.54 336.94 40.46 359.74 52.86 359.66 92.94"/><g class="cls-2"><g class="cls-4"><g class="cls-2"><path d="M359.74,52.86l-22.8-12.4c0-14.2-6.84-25.73-17.2-31.36l22.79,12.4c10.36,5.63,17.23,17.16,17.21,31.36"/></g></g></g><g class="cls-2"><g class="cls-5"><g class="cls-2"><path class="cls-6" d="M322.78,18.1,300,5.7a32.81,32.81,0,0,1,12.76.65l22.79,12.4a32.81,32.81,0,0,0-12.76-.65"/><path class="cls-7" d="M335.54,18.75,312.75,6.35a31.12,31.12,0,0,1,5.86,2.16l22.79,12.4a30.62,30.62,0,0,0-5.86-2.16"/><path class="cls-8" d="M341.4,20.91,318.61,8.51l1.13.59,22.79,12.4-1.13-.59"/></g></g></g><g class="cls-2"><g class="cls-9"><g class="cls-2"><path d="M322.79,12.33,300-.07a37.49,37.49,0,0,1,14.6.75l22.79,12.4a37.49,37.49,0,0,0-14.6-.75"/><path d="M337.39,13.08,314.6.68a35.35,35.35,0,0,1,6.7,2.47l22.79,12.4a34.85,34.85,0,0,0-6.7-2.47"/><path d="M344.09,15.55,321.3,3.15c.43.22.87.44,1.29.67l22.79,12.4c-.42-.23-.85-.45-1.29-.67"/></g></g></g><polygon points="65.02 174.3 42.23 161.9 299.76 125.71 322.56 138.11 65.02 174.3"/><g class="cls-2"><g class="cls-10"><g class="cls-2"><path d="M45.27,170.9,22.48,158.5l1.13.59,22.79,12.4-1.13-.59"/><path d="M46.4,171.49l-22.79-12.4a30.77,30.77,0,0,0,5.85,2.16l22.8,12.4a30.87,30.87,0,0,1-5.86-2.16"/><path d="M52.26,173.65l-22.8-12.4a32.85,32.85,0,0,0,12.77.65L65,174.3a32.81,32.81,0,0,1-12.76-.65"/></g></g></g><g class="cls-2"><g class="cls-11"><g class="cls-2"><path class="cls-12" d="M45.27,170.9,22.48,158.5c-10.36-5.63-17.24-17.16-17.21-31.36l22.79,12.4c0,14.2,6.85,25.73,17.21,31.36"/></g></g></g><g class="cls-2"><g class="cls-13"><g class="cls-2"><path d="M42.41,176.18l-22.8-12.4C7.76,157.33-.1,144.14-.07,127.89l22.79,12.4c0,16.25,7.84,29.44,19.69,35.89"/></g></g></g><polygon class="cls-14" points="65.25 54.29 42.45 41.89 299.99 5.7 322.78 18.09 65.25 54.29"/><polygon points="65.25 48.52 42.46 36.12 300 -0.07 322.79 12.33 65.25 48.52"/><polygon class="cls-15" points="28.06 139.54 5.27 127.14 5.34 87.06 28.14 99.46 28.06 139.54"/><g class="cls-2"><g class="cls-16"><g class="cls-2"><path class="cls-8" d="M44,64.56,21.16,52.16a43.34,43.34,0,0,1,4.48-3.55L48.44,61A44.56,44.56,0,0,0,44,64.56"/></g></g></g><g class="cls-2"><g class="cls-17"><g class="cls-2"><path class="cls-18" d="M40.16,68.38,17.37,56a45.55,45.55,0,0,1,3.79-3.82L44,64.56a47.13,47.13,0,0,0-3.79,3.82"/><path class="cls-8" d="M44,64.56,21.16,52.16a43.34,43.34,0,0,1,4.48-3.55L48.44,61A44.56,44.56,0,0,0,44,64.56"/></g></g></g><g class="cls-2"><g class="cls-19"><g class="cls-2"><path class="cls-12" d="M28.14,99.46,5.34,87.06A45.93,45.93,0,0,1,8.19,71.37L31,83.77a45.7,45.7,0,0,0-2.85,15.69"/></g></g></g><polygon points="22.72 140.29 -0.07 127.89 0 87.82 22.8 100.22 22.72 140.29"/><g class="cls-2"><g class="cls-20"><g class="cls-2"><path class="cls-12" d="M28.14,99.46,5.34,87.06A45.93,45.93,0,0,1,8.19,71.37L31,83.77a45.7,45.7,0,0,0-2.85,15.69"/><path class="cls-21" d="M31,83.77,8.19,71.37A48,48,0,0,1,11,65.13l22.8,12.4A48,48,0,0,0,31,83.77"/><path class="cls-22" d="M33.8,77.53,11,65.13a48.84,48.84,0,0,1,3-4.9l22.79,12.4a47,47,0,0,0-3,4.9"/><path class="cls-23" d="M36.82,72.63,14,60.23A47.29,47.29,0,0,1,17.37,56l22.79,12.4a47.68,47.68,0,0,0-3.34,4.25"/><path class="cls-18" d="M40.16,68.38,17.37,56a45.55,45.55,0,0,1,3.79-3.82L44,64.56a47.13,47.13,0,0,0-3.79,3.82"/></g></g></g><path class="cls-24" d="M322.78,18.1c20.42-2.87,37,12.72,37,34.76l-.08,40.07c0,22-16.68,42.31-37.1,45.18L65,174.3c-20.42,2.87-37-12.72-37-34.76l.08-40.08c0-22,16.69-42.3,37.1-45.17Z"/><g class="cls-2"><g class="cls-25"><g class="cls-2"><path d="M22.8,100.22,0,87.82a52.41,52.41,0,0,1,3.26-18l22.79,12.4a52.64,52.64,0,0,0-3.25,18"/><path d="M26.05,82.25,3.26,69.85a54.5,54.5,0,0,1,3.22-7.14l22.79,12.4a57.27,57.27,0,0,0-3.22,7.14"/><path d="M29.27,75.11,6.48,62.71A55.59,55.59,0,0,1,9.94,57.1L32.73,69.5a55.59,55.59,0,0,0-3.46,5.61"/><path d="M32.73,69.5,9.94,57.1a54.29,54.29,0,0,1,3.82-4.85l22.79,12.4a56.17,56.17,0,0,0-3.82,4.85"/><path d="M36.55,64.65,13.76,52.25a52.77,52.77,0,0,1,4.34-4.38l22.79,12.4a54.38,54.38,0,0,0-4.34,4.38"/><path d="M40.89,60.27,18.1,47.87a49.68,49.68,0,0,1,5.13-4.06L46,56.21a49.68,49.68,0,0,0-5.13,4.06"/><path d="M46,56.21,23.23,43.81a47.2,47.2,0,0,1,6.88-4L52.9,52.24a47.2,47.2,0,0,0-6.88,4"/><path d="M52.9,52.24,30.11,39.84a43.32,43.32,0,0,1,12.35-3.72l22.79,12.4A43.41,43.41,0,0,0,52.9,52.24"/></g></g></g><path d="M322.79,12.33c23.36-3.28,42.33,14.56,42.28,39.78L365,92.19c-.05,25.21-19.1,48.4-42.45,51.69L65,180.07c-23.37,3.28-42.34-14.56-42.29-39.78l.08-40.07c0-25.22,19.09-48.41,42.45-51.7Zm36.87,80.6.08-40.07c0-22-16.54-37.63-37-34.76L65.24,54.29c-20.41,2.87-37.06,23.14-37.1,45.17l-.08,40.08c0,22,16.54,37.63,37,34.76l257.54-36.19c20.42-2.87,37.06-23.14,37.1-45.18"/></g><path class="cls-26" d="M80.5,148.1A12,12,0,0,1,70.2,143c-2.15-3.07-3.91-8.84-1.29-12.13,1.13-1.44,5.72-2.63,6.68-.44,1.28,2.92,1.14,13.61,6.36,11.24,1.79-.85,3.16-4.13,3-6.25-.26-3.42-2.34-6.19-4.34-8.28-6.68-7.07-14.76-13.26-15.74-25.19C64,91.69,69.7,82.43,78.39,83.07c9.18.63,14.14,13.06,10.78,23.2-.62,1.87-5.76,2.55-6.35.46-.87-3.17-.73-6.49-1.39-9.74-.36-1.87-2.33-8.44-4.58-8-3.67.72-3.44,10.72-2.92,13.66,1.15,6.45,6.66,10.44,10.73,14.39,3.49,3.44,7.26,5.15,9.34,12.06C97.23,140,88.23,148,80.5,148.1Z"/><path class="cls-26" d="M121,77.77a.39.39,0,0,1,0,.26c-.23,4.87-7,5.68-10.86,6.25a240.22,240.22,0,0,1,4.39,26.31c.53,5.08.66,10.33,1.12,15.42a43.24,43.24,0,0,1-.71,14c-.38,1.56-4.93,2.4-5.65,1a45.2,45.2,0,0,1-4.19-13.53c-1.66-12.38-3.28-24.89-3.82-37.6a35.26,35.26,0,0,0-.12-3.93l-2.88.53c-2.17.31-4.45.86-6.15-1.11A1.38,1.38,0,0,1,92,84.2c1-4.66,8.57-5.22,11.46-5.92A48.62,48.62,0,0,1,112,76.66a14.71,14.71,0,0,1,7.67-.23c.4.11,1.27.34,1.44.92A1,1,0,0,1,121,77.77Z"/><path class="cls-26" d="M152.45,130.64a3.42,3.42,0,0,1-3.31,3.2c-2,.1-2.77-.37-3.36-2.67-.49-1.8-1.12-3.92-1.59-6.12-.51-1.61-1-3.19-1.51-4.81-3.33,1.19-7.15,1.14-10.53,1.63a1.81,1.81,0,0,1-.52.06c-.19,2.49-.35,5-.44,7.49,0,2.29,0,4.53,0,6.81,0,3.16-6,1.63-6.27-1.48-2.28-25.95,0-34.36,1.2-45.72.55-5.19,1-10.89,3.36-15.23.38-.68,3-1.47,4-1,.83-.11,1.64-.12,1.92.17,2.63,2.42,2.28,3.66,4,6.37C142.26,83.68,152.83,114,152.45,130.64Zm-19.84-24.86c-.09,4-.39,8-.69,12.06a21.3,21.3,0,0,1,5.83-1.34c1.18-.13,2.45-.36,3.66-.5-1.12-3.83-2.23-7.66-3.29-11.55-1.4-5-2.7-10.16-4-15.28-.18-.71-.3-1.44-.49-2.15-.11,1.16-.26,2.29-.34,3.4C132.94,95.53,132.74,100.66,132.61,105.78Z"/><path class="cls-26" d="M174.08,107.71c3.66,4,10.53,15,6.65,21-1.14,1.7-5.43,2.14-6.55.33s-.91-3-1.2-5.13a31.84,31.84,0,0,0-2.19-7.33c-1.57-3.79-3.92-8-7.27-9.41-.38.07-.62.07-.64-.06.35,2.93.72,5.8,1.13,8.66.57,4,2.79,12.78-.59,15.6C160.3,134,157,129.5,156.14,126a236.87,236.87,0,0,1-4.38-24.72c-1.19-9.26-.74-18.52-.57-27.81,0-2.11.08-4.93,1.55-6.47.87-.9,4.09-1.54,4.93-.33a4.12,4.12,0,0,1,.27.52s0,0,0,0a4,4,0,0,1,.39.68A10.14,10.14,0,0,1,160.43,66a6,6,0,0,1,5.08-.9A12.18,12.18,0,0,1,171.83,68c3.48,3.09,7.31,8,8.36,13,1.82,9-3.83,19.22-10.3,23.53A13.54,13.54,0,0,1,174.08,107.71Zm-2.83-24.1c-.38-4.14-2.55-9.79-5.13-12.66-1-1.08-2.59-2.06-3.93-1.82-3.64.59-2.14,8.25-1.89,11,.19,2.25.39,4.49.55,6.79.34,4.37.65,8.78,1.16,13.12.07.6.15,1.25.22,1.85.47-.18.94-.35,1.5-.59A9.07,9.07,0,0,0,168,97.21,24.62,24.62,0,0,0,171.25,83.61Z"/><path class="cls-26" d="M210.41,61.31a.39.39,0,0,1,0,.26c-.24,4.87-7,5.68-10.86,6.25A245.11,245.11,0,0,1,204,94.13c.53,5.08.65,10.33,1.11,15.42a43,43,0,0,1-.7,14c-.38,1.56-4.94,2.4-5.66,1A45.19,45.19,0,0,1,194.54,111c-1.67-12.38-3.28-24.89-3.83-37.61a32.6,32.6,0,0,0-.11-3.92l-2.88.53c-2.17.31-4.45.86-6.15-1.11a1.38,1.38,0,0,1-.14-1.16c1-4.66,8.56-5.22,11.46-5.92a48.44,48.44,0,0,1,8.53-1.62,14.71,14.71,0,0,1,7.67-.23c.4.11,1.27.34,1.44.92A1,1,0,0,1,210.41,61.31Z"/><path class="cls-26" d="M244,118a12,12,0,0,1-10.3-5.12c-2.15-3.07-3.91-8.84-1.29-12.14,1.13-1.43,5.72-2.63,6.67-.43,1.29,2.92,1.15,13.61,6.37,11.24,1.79-.86,3.16-4.13,3-6.25-.27-3.42-2.34-6.2-4.34-8.29-6.68-7.06-14.76-13.25-15.74-25.18-.89-10.23,4.85-19.5,13.54-18.86,9.18.64,14.14,13.06,10.78,23.2-.62,1.87-5.76,2.56-6.35.47-.87-3.17-.73-6.49-1.4-9.75-.35-1.86-2.32-8.43-4.58-8-3.66.71-3.43,10.72-2.91,13.65C238.58,79,244.09,83,248.16,87c3.49,3.44,7.26,5.16,9.33,12.06C260.73,109.88,251.73,117.9,244,118Z"/><path class="cls-26" d="M274,86.2c-.34.15-4.6,2-4.69,1.52.86,6.12,1.7,12.11,2.29,18.32.22,2.19.25,4.47-1.37,5.87-3.09,2.67-6.47-1.71-7.34-5.19a236.31,236.31,0,0,1-4.6-23.94c-.11-.91-.21-1.81-.32-2.75a129.39,129.39,0,0,1-.67-18.79c.08-2.56.2-5.09.43-7.63a16.32,16.32,0,0,1,.84-4.19c.69-1.84,2.82-3.41,4.36-2.25a5.88,5.88,0,0,1,.51.48c.27.25.55.51.79.77a5.87,5.87,0,0,1,3.07-2.49.74.74,0,0,1,.12-.16l.44-.08a6.49,6.49,0,0,1,3.86,0h0a11.74,11.74,0,0,1,5.91,2.64c3.54,3,5.8,8,6.91,13C286.76,71.26,281.75,82.84,274,86.2ZM277.33,64c-.46-4.17-2.73-9.77-5.33-12.58-1.13-1.19-3.14-2.27-4.61-1.61-1.23.54-2.11,2.54-1.93,4.13.45,4.4,1.13,8.7,1.51,13.11s.79,9.07,1.39,13.56c.07.61.14,1.21.24,1.8.44-.17.94-.35,1.47-.58a9.69,9.69,0,0,0,4.17-4.19A25,25,0,0,0,277.33,64Z"/><path class="cls-26" d="M300.65,76.47c.45,5.09,1.16,24.49,0,28.87-.42,1.53-5.33,2.38-6,1-2-3.94-4.26-18.39-4.79-22.9-1.43-12.41-1.41-15.23-1.61-28,0-3.28-2.1-9.83,1.67-11.1,1.72-.58,5.28-.62,6,2A184.19,184.19,0,0,1,300.65,76.47Z"/><path class="cls-26" d="M330.51,97.26c-1.19,3-7,3.87-9.2,4.85-3.32,1.53-5.87,3.36-9.54,2.85a2.76,2.76,0,0,1-2.39-2.19c-1.3-4.81-4.65-24.9-5.13-29.9-.55-5.3-1.76-27.15.17-31.28.79-1.63,4.68-2.22,5.75-.88,2.82,3.48,2.62,10.4,3.17,15.08.62,5,1.13,9.93,1.69,14.92.55,5.29,1.17,10.58,1.72,15.87.3,2.8.52,5.61.75,8.42,0,.26,0,.78.06,1.39C322.39,94.89,332.48,92.28,330.51,97.26Z"/></svg>
