<svg id="Layer_1" data-name="Layer 1" xmlns="http://www.w3.org/2000/svg" width="305" height="635" viewBox="0 0 305 635"><defs><style>.cls-1{fill:#f4b62c;}.cls-2,.cls-4,.cls-8{fill:none;}.cls-2{stroke:#f7f77f;stroke-width:20px;}.cls-2,.cls-4{stroke-linecap:round;}.cls-2,.cls-8{stroke-miterlimit:10;}.cls-3{fill:#f7f77f;}.cls-4,.cls-8{stroke:#000;}.cls-4{stroke-linejoin:round;}.cls-5{fill:#aa4ea6;}.cls-6{fill:#fff;}.cls-7{fill:#e25252;}</style></defs><ellipse class="cls-1" cx="57.7" cy="222.4" rx="13.36" ry="11.66"/><ellipse class="cls-1" cx="53.93" cy="203.57" rx="17.13" ry="14.95"/><path class="cls-1" d="M118.66,245.09l45.8,2.58c49.49,2.79,92.2-29.95,95.39-73.13L265.59,97c3.2-43.18-34.32-80.44-83.81-83.23L136,11.17C86.49,8.38,43.79,41.12,40.59,84.3l-5.74,77.56C31.65,205,69.18,242.3,118.66,245.09Z"/><path class="cls-2" d="M68.45,328.61c-36-9-56.68-42.19-46.2-74.16s48.16-50.61,84.16-41.62"/><ellipse class="cls-1" cx="258.5" cy="222.4" rx="32.55" ry="28.4"/><rect class="cls-3" x="194.1" y="537.95" width="10.61" height="80.31" transform="translate(398.82 1156.22) rotate(-180)"/><path class="cls-4" d="M199.49,585.69c-1.73.1-3.32-2.4-3.55-5.59s1-5.87,2.71-6"/><ellipse class="cls-3" cx="183" cy="622.94" rx="22.56" ry="10.34" transform="translate(-164.2 74.31) rotate(-15.96)"/><rect class="cls-3" x="81.81" y="541.54" width="10.61" height="80.31" transform="translate(174.24 1163.39) rotate(-180)"/><path class="cls-4" d="M87.2,589.28c-1.73.1-3.32-2.41-3.56-5.6s1-5.86,2.72-6"/><ellipse class="cls-3" cx="71.7" cy="621.85" rx="20.72" ry="8.21"/><path class="cls-5" d="M114.31,168,1.48,512.11a29.18,29.18,0,0,0,27.73,38.28H229.65a47.48,47.48,0,0,0,45.11-62.26L169.78,168C161,141.17,123.1,141.17,114.31,168Z"/><path class="cls-3" d="M169,142.52l29.07-35.64c17.06-20.9,4.87-52.42-21.81-56.42l-42.86-6.41A34.8,34.8,0,0,0,95.15,89.31l13.79,42.05C117.51,157.5,151.59,163.84,169,142.52Z"/><ellipse class="cls-1" cx="265.7" cy="92.35" rx="25.36" ry="22.12"/><ellipse class="cls-1" cx="266.04" cy="151.25" rx="34.61" ry="30.2"/><ellipse class="cls-1" cx="265.36" cy="126.13" rx="29.13" ry="25.41"/><ellipse class="cls-1" cx="268.1" cy="192.51" rx="26.39" ry="20.03"/><ellipse class="cls-1" cx="286.26" cy="172.47" rx="18.5" ry="16.15"/><ellipse class="cls-1" cx="251.65" cy="64.54" rx="20.22" ry="17.64"/><ellipse class="cls-1" cx="235.54" cy="35.54" rx="9.59" ry="8.37"/><ellipse class="cls-1" cx="244.11" cy="44.21" rx="12.68" ry="11.06"/><ellipse class="cls-1" cx="227.66" cy="68.13" rx="19.53" ry="17.04"/><ellipse class="cls-1" cx="210.19" cy="49.89" rx="16.45" ry="14.35"/><ellipse class="cls-1" cx="219.44" cy="92.05" rx="13.36" ry="11.66"/><ellipse class="cls-1" cx="187.57" cy="49.89" rx="14.39" ry="12.56"/><ellipse class="cls-1" cx="151.59" cy="38.83" rx="18.85" ry="16.44"/><ellipse class="cls-1" cx="172.84" cy="46" rx="8.57" ry="7.47"/><ellipse class="cls-1" cx="128.63" cy="42.12" rx="10.28" ry="8.97"/><ellipse class="cls-1" cx="115.27" cy="37.03" rx="11.31" ry="9.87"/><ellipse class="cls-1" cx="71.41" cy="47.2" rx="22.96" ry="20.03"/><ellipse class="cls-1" cx="88.88" cy="33.74" rx="18.5" ry="16.15"/><ellipse class="cls-1" cx="213.61" cy="30.75" rx="19.19" ry="16.74"/><ellipse class="cls-1" cx="193.74" cy="19.99" rx="12.34" ry="10.76"/><ellipse class="cls-1" cx="158.45" cy="17.3" rx="18.16" ry="15.85"/><ellipse class="cls-1" cx="179.69" cy="10.72" rx="7.88" ry="6.88"/><ellipse class="cls-1" cx="132.4" cy="10.72" rx="12.68" ry="11.06"/><ellipse class="cls-1" cx="121.44" cy="8.33" rx="6.51" ry="5.68"/><ellipse class="cls-1" cx="106.02" cy="13.41" rx="4.8" ry="4.19"/><ellipse class="cls-1" cx="110.47" cy="10.72" rx="7.88" ry="6.88"/><ellipse class="cls-1" cx="97.45" cy="14.91" rx="8.57" ry="7.47"/><ellipse class="cls-1" cx="45.37" cy="69.92" rx="11.99" ry="10.46"/><ellipse class="cls-1" cx="53.25" cy="63.64" rx="16.45" ry="14.35"/><ellipse class="cls-1" cx="50.16" cy="180.55" rx="20.22" ry="19.43"/><ellipse class="cls-1" cx="52.22" cy="162.61" rx="22.27" ry="19.43"/><ellipse class="cls-1" cx="39.54" cy="143.77" rx="12.34" ry="10.76"/><ellipse class="cls-1" cx="47.08" cy="130.02" rx="17.13" ry="14.95"/><ellipse class="cls-1" cx="38.51" cy="110.58" rx="11.31" ry="9.87"/><ellipse class="cls-1" cx="46.74" cy="94.44" rx="10.62" ry="9.27"/><ellipse class="cls-1" cx="43.65" cy="89.36" rx="13.71" ry="11.96"/><path class="cls-4" d="M145.27,83.76c-1.1-2.47,3.7-6.59,10.72-9.18s13.59-2.7,14.69-.22"/><path class="cls-4" d="M125.32,82.77c1.26-2.06-2.33-6.06-8-8.92s-11.35-3.5-12.61-1.43"/><path class="cls-4" d="M19,254.59c-1.77,0-3.37,2.47-3.56,5.59s1.08,5.68,2.85,5.71"/><polygon class="cls-6" points="143.44 98.44 176.38 92.7 165.6 76.41 143.44 98.44"/><polygon class="cls-6" points="126.17 98.12 98.56 91.63 110.1 77.48 126.17 98.12"/><ellipse cx="155.36" cy="92.35" rx="4.11" ry="3.59"/><ellipse cx="116.3" cy="91.75" rx="3.43" ry="2.99"/><path class="cls-7" d="M117,142.57c0-5.61,9.21-10.16,20.56-10.16S158.1,137,158.1,142.57"/><ellipse class="cls-7" cx="145.77" cy="137.49" rx="6.85" ry="2.09"/><ellipse class="cls-7" cx="132.06" cy="137.49" rx="6.85" ry="2.09"/><path class="cls-2" d="M211,331.6c36-9,56.68-42.19,46.2-74.16S209,206.83,173,215.82"/><path class="cls-4" d="M259.38,257.58c1.78,0,3.37,2.47,3.57,5.59s-1.08,5.68-2.86,5.71"/><line class="cls-8" x1="135.64" y1="111.14" x2="117.14" y2="117.72"/><line class="cls-8" x1="123.99" y1="106.95" x2="117.14" y2="117.72"/></svg>
