<svg id="Layer_1" data-name="Layer 1" xmlns="http://www.w3.org/2000/svg" width="125" height="115" viewBox="0 0 125 115"><defs><style>.cls-1{fill:#e25252;}.cls-2{fill:#fff;}.cls-3{fill:none;stroke:#27af2c;stroke-linecap:round;stroke-miterlimit:10;stroke-width:5px;}</style></defs><path class="cls-1" d="M125.14,68.07c0,28.7-28.18,42.82-62.77,42.82S-.14,96.77-.14,68.07,28.34,22.48,62.94,22.48,125.14,39.38,125.14,68.07Z"/><ellipse class="cls-2" cx="33.75" cy="53.77" rx="9.35" ry="4.31"/><ellipse cx="34.03" cy="55.2" rx="2.83" ry="2.87"/><ellipse class="cls-2" cx="89.3" cy="53.77" rx="9.35" ry="4.31"/><ellipse cx="89.58" cy="55.2" rx="2.83" ry="2.87"/><line class="cls-3" x1="63.22" y1="32.53" x2="51.32" y2="11.29"/><line class="cls-3" x1="62.65" y1="3.25" x2="62.65" y2="31.95"/><line class="cls-3" x1="72.86" y1="13.01" x2="65.49" y2="32.53"/><line class="cls-3" x1="67.76" y1="106.01" x2="62.72" y2="103.93"/><line class="cls-3" x1="62.65" y1="111.75" x2="62.65" y2="105.44"/><line class="cls-3" x1="62.1" y1="104.04" x2="58.69" y2="107.16"/></svg>
